<svg width="24" height="24" viewBox="0 0 24 24" fill="none" xmlns="http://www.w3.org/2000/svg">
<path d="M12 2C6.486 2 2 6.486 2 12C2 17.514 6.486 22 12 22C17.514 22 22 17.514 22 12C22 6.486 17.514 2 12 2ZM12 21C7.037 21 3 16.963 3 12C3 7.037 7.037 3 12 3C16.963 3 21 7.037 21 12C21 16.963 16.963 21 12 21ZM15.889 7.40399L12 11.293L8.111 7.40399L7.404 8.11099L11.293 12L7.404 15.889L8.111 16.596L12 12.707L15.889 16.596L16.596 15.889L12.707 12L16.596 8.11099L15.889 7.40399Z" fill="#000000"/>
</svg>
